<?xml version="1.0" encoding="UTF-8" standalone="no"?>
<!-- Generator: Adobe Illustrator 16.0.0, SVG Export Plug-In . SVG Version: 6.00 Build 0)  -->

<svg
   xmlns:dc="http://purl.org/dc/elements/1.1/"
   xmlns:cc="http://creativecommons.org/ns#"
   xmlns:rdf="http://www.w3.org/1999/02/22-rdf-syntax-ns#"
   xmlns:svg="http://www.w3.org/2000/svg"
   xmlns="http://www.w3.org/2000/svg"
   xmlns:sodipodi="http://sodipodi.sourceforge.net/DTD/sodipodi-0.dtd"
   xmlns:inkscape="http://www.inkscape.org/namespaces/inkscape"
   version="1.1"
   id="Layer_1"
   x="0px"
   y="0px"
   width="157.95651"
   height="42.000004"
   viewBox="0 0 157.95652 42.000005"
   enable-background="new 0 0 141.7 56.7"
   xml:space="preserve"
   sodipodi:docname="logo.svg"
   inkscape:version="0.92.1 r15371"><metadata
     id="metadata270"><rdf:RDF><cc:Work
         rdf:about=""><dc:format>image/svg+xml</dc:format><dc:type
           rdf:resource="http://purl.org/dc/dcmitype/StillImage" /><dc:title></dc:title></cc:Work></rdf:RDF></metadata><defs
     id="defs268" /><sodipodi:namedview
     pagecolor="#ffffff"
     bordercolor="#666666"
     borderopacity="1"
     objecttolerance="10"
     gridtolerance="10"
     guidetolerance="10"
     inkscape:pageopacity="0"
     inkscape:pageshadow="2"
     inkscape:window-width="1600"
     inkscape:window-height="840"
     id="namedview266"
     showgrid="false"
     inkscape:zoom="7.353564"
     inkscape:cx="93.571879"
     inkscape:cy="20.150004"
     inkscape:window-x="0"
     inkscape:window-y="0"
     inkscape:window-maximized="1"
     inkscape:current-layer="Layer_1"
     fit-margin-top="0"
     fit-margin-left="0"
     fit-margin-right="0"
     fit-margin-bottom="0" /><linearGradient
     id="SVGID_1_"
     gradientUnits="userSpaceOnUse"
     x1="20.040501"
     y1="32.4063"
     x2="54.084202"
     y2="80.146103"
     gradientTransform="matrix(1.1413043,0,0,1.1413043,-0.325,-6.8532609)"><stop
       offset="0"
       style="stop-color:#21BBAF"
       id="stop160" /><stop
       offset="1"
       style="stop-color:#046696"
       id="stop162" /></linearGradient><linearGradient
     id="SVGID_2_"
     gradientUnits="userSpaceOnUse"
     x1="40.586399"
     y1="17.7549"
     x2="74.631599"
     y2="65.496696"
     gradientTransform="matrix(1.1413043,0,0,1.1413043,-0.325,-6.8532609)"><stop
       offset="0"
       style="stop-color:#21BBAF"
       id="stop167" /><stop
       offset="1"
       style="stop-color:#046696"
       id="stop169" /></linearGradient><linearGradient
     id="SVGID_3_"
     gradientUnits="userSpaceOnUse"
     x1="59.979"
     y1="0.9946"
     x2="94.025497"
     y2="48.738499"><stop
       offset="0"
       style="stop-color:#21BBAF"
       id="stop174" /><stop
       offset="1"
       style="stop-color:#046696"
       id="stop176" /></linearGradient><linearGradient
     id="SVGID_4_"
     gradientUnits="userSpaceOnUse"
     x1="68.1558"
     y1="-4.8354001"
     x2="102.2015"
     y2="42.907299"
     gradientTransform="matrix(1.1413043,0,0,1.1413043,-0.325,-6.8532609)"><stop
       offset="0"
       style="stop-color:#21BBAF"
       id="stop181" /><stop
       offset="1"
       style="stop-color:#046696"
       id="stop183" /></linearGradient><linearGradient
     id="SVGID_5_"
     gradientUnits="userSpaceOnUse"
     x1="75.609398"
     y1="-10.1494"
     x2="109.6534"
     y2="37.5909"><stop
       offset="0"
       style="stop-color:#21BBAF"
       id="stop188" /><stop
       offset="1"
       style="stop-color:#046696"
       id="stop190" /></linearGradient><linearGradient
     id="SVGID_6_"
     gradientUnits="userSpaceOnUse"
     x1="81.946297"
     y1="-14.666"
     x2="115.9892"
     y2="33.072701"><stop
       offset="0"
       style="stop-color:#21BBAF"
       id="stop195" /><stop
       offset="1"
       style="stop-color:#046696"
       id="stop197" /></linearGradient><linearGradient
     id="SVGID_7_"
     gradientUnits="userSpaceOnUse"
     x1="89.050797"
     y1="-19.737801"
     x2="123.0968"
     y2="28.005301"><stop
       offset="0"
       style="stop-color:#21BBAF"
       id="stop202" /><stop
       offset="1"
       style="stop-color:#046696"
       id="stop204" /></linearGradient><linearGradient
     id="SVGID_8_"
     gradientUnits="userSpaceOnUse"
     x1="98.468803"
     y1="-26.4468"
     x2="132.51131"
     y2="21.2915"><stop
       offset="0"
       style="stop-color:#21BBAF"
       id="stop209" /><stop
       offset="1"
       style="stop-color:#046696"
       id="stop211" /></linearGradient><linearGradient
     id="SVGID_9_"
     gradientUnits="userSpaceOnUse"
     x1="49.464802"
     y1="8.4906998"
     x2="83.511299"
     y2="56.234402"
     gradientTransform="matrix(1.1413043,0,0,1.1413043,-0.325,-6.8532609)"><stop
       offset="0"
       style="stop-color:#21BBAF"
       id="stop216" /><stop
       offset="1"
       style="stop-color:#046696"
       id="stop218" /></linearGradient><linearGradient
     id="SVGID_10_"
     gradientUnits="userSpaceOnUse"
     x1="56.043499"
     y1="3.7988"
     x2="90.090302"
     y2="51.542999"
     gradientTransform="matrix(1.1413043,0,0,1.1413043,-0.325,-6.8532609)"><stop
       offset="0"
       style="stop-color:#21BBAF"
       id="stop223" /><stop
       offset="1"
       style="stop-color:#046696"
       id="stop225" /></linearGradient><linearGradient
     id="SVGID_11_"
     gradientUnits="userSpaceOnUse"
     x1="65.559097"
     y1="-2.9809999"
     x2="99.602898"
     y2="44.759102"
     gradientTransform="matrix(1.1413043,0,0,1.1413043,-0.325,-6.8532609)"><stop
       offset="0"
       style="stop-color:#21BBAF"
       id="stop230" /><stop
       offset="1"
       style="stop-color:#046696"
       id="stop232" /></linearGradient><linearGradient
     id="SVGID_12_"
     gradientUnits="userSpaceOnUse"
     x1="75.140602"
     y1="-9.8174"
     x2="109.1855"
     y2="37.924198"><stop
       offset="0"
       style="stop-color:#21BBAF"
       id="stop237" /><stop
       offset="1"
       style="stop-color:#046696"
       id="stop239" /></linearGradient><linearGradient
     id="SVGID_13_"
     gradientUnits="userSpaceOnUse"
     x1="78.855499"
     y1="-12.4653"
     x2="112.9"
     y2="35.2757"><stop
       offset="0"
       style="stop-color:#21BBAF"
       id="stop244" /><stop
       offset="1"
       style="stop-color:#046696"
       id="stop246" /></linearGradient><linearGradient
     id="SVGID_14_"
     gradientUnits="userSpaceOnUse"
     x1="84.931602"
     y1="-16.7939"
     x2="118.9743"
     y2="30.9445"><stop
       offset="0"
       style="stop-color:#21BBAF"
       id="stop251" /><stop
       offset="1"
       style="stop-color:#046696"
       id="stop253" /></linearGradient><linearGradient
     id="SVGID_15_"
     gradientUnits="userSpaceOnUse"
     x1="90.226601"
     y1="-20.5776"
     x2="124.2726"
     y2="27.165501"
     gradientTransform="matrix(1.1413043,0,0,1.1413043,-2.625,-13.353262)"><stop
       offset="0"
       style="stop-color:#21BBAF"
       id="stop258" /><stop
       offset="1"
       style="stop-color:#046696"
       id="stop260" /></linearGradient><path
     id="polygon263"
     style="fill:url(#SVGID_15_);stroke-width:1.14130425"
     d="m 152.70652,41.315213 0.22826,-2.73913 h -4.22283 l 0.57065,-5.59239 h 3.19565 l 0.3424,-2.85326 h -3.30979 l 0.57066,-4.67935 h 4.22282 l 0.34239,-2.73913 h -8.33152 l -2.05435,18.60326 z m -14.49457,-5.93478 -0.68478,-12.66848 h -3.42391 l 1.36956,18.60326 h 4.22283 l 5.47826,-18.60326 h -3.65218 z m -7.30435,5.93478 1.94022,-18.60326 h -3.99456 l -1.94022,18.60326 z m -12.78261,-18.60326 -0.34239,2.96739 h 2.85326 l -1.59782,15.63587 h 4.10869 l 1.59783,-15.63587 h 2.85326 l 0.34239,-2.96739 z m -6.73369,0 -4.67934,15.97826 H 102.375 l 0.57065,-5.59239 h 3.30978 l 0.3424,-2.85326 h -3.30979 l 0.45653,-4.67935 h 4.33695 l 0.34239,-2.73913 h -8.33152 l -1.94022,18.71739 h 7.875 1.59783 2.16848 l 1.02717,-3.99456 h 2.73913 l 0.22826,3.99456 h 3.76631 l -1.59783,-18.71739 h -4.56522 z m 0,12.21196 1.82609,-7.30435 0.22826,7.30435 z M 97.125,24.195653 c -0.342391,-0.34239 -0.684783,-0.68478 -1.255435,-0.91304 -0.456522,-0.22827 -1.027174,-0.3424 -1.711956,-0.45653 -0.570652,-0.11413 -1.255435,-0.11413 -2.054348,-0.11413 h -5.021738 l -1.940219,18.71739 H 89.25 l 0.913043,-8.33152 h 1.141305 l 1.369564,8.33152 h 4.108697 l -1.826087,-9.13043 c 0.913043,-0.45652 1.597826,-1.02718 2.054348,-1.82609 0.456521,-0.79891 0.79891,-1.71195 0.91304,-2.96739 0,-0.34239 0,-0.57065 0,-0.79891 0,-0.45653 0,-0.79892 -0.11413,-1.14131 -0.228258,-0.57065 -0.456519,-1.02717 -0.68478,-1.36956 z m -3.081522,3.7663 c -0.114131,0.91305 -0.342391,1.59783 -0.798913,2.05435 -0.456522,0.45652 -1.027174,0.68478 -1.940217,0.68478 h -1.027175 l 0.684784,-5.25 h 1.255434 c 0.798913,0 1.369566,0.22826 1.597826,0.68479 0.228261,0.34239 0.342392,0.68478 0.342392,1.25543 -0.114131,0.11413 -0.114131,0.34239 -0.114131,0.57065 z m -9.358694,-3.42391 c -0.228262,-0.45652 -0.456523,-0.79891 -0.913045,-1.14131 -0.342391,-0.34239 -0.798913,-0.57065 -1.483696,-0.68478 -0.570652,-0.11413 -1.255434,-0.22826 -2.054347,-0.22826 -1.027174,0 -1.940218,0.11413 -2.739131,0.45652 -0.798913,0.22826 -1.369565,0.68479 -1.826087,1.25544 -0.456521,0.57065 -0.913043,1.25543 -1.141304,1.94022 -0.228261,0.79891 -0.456522,1.59782 -0.570652,2.625 l -0.684783,6.61956 c 0,0.45652 -0.11413,1.02718 -0.11413,1.4837 0,0.22826 0,0.45652 0,0.68478 0,0.68478 0.11413,1.25543 0.342391,1.71196 0.228261,0.57065 0.570652,0.91304 0.913043,1.36956 0.342392,0.34239 0.913044,0.68478 1.483696,0.79891 0.570652,0.11413 1.369565,0.3424 2.168478,0.3424 1.027174,0 1.940218,-0.11414 2.625,-0.45653 0.684783,-0.22826 1.369565,-0.68478 1.826087,-1.1413 0.456522,-0.57065 0.798913,-1.14131 1.027174,-1.71196 C 83.771739,37.891303 84,37.092393 84,36.179343 l 0.11413,-1.59782 h -3.994565 l -0.228261,1.94022 c 0,0.34239 -0.11413,0.57065 -0.11413,0.68478 0,0.22826 -0.114131,0.34239 -0.114131,0.68478 -0.11413,0.22826 -0.11413,0.45652 -0.22826,0.57065 -0.114131,0.11413 -0.228261,0.22826 -0.456522,0.34239 -0.228261,0.11413 -0.456522,0.11413 -0.684783,0.11413 -0.570652,0 -0.913043,-0.22826 -1.141304,-0.57065 -0.11413,-0.22826 -0.11413,-0.57065 -0.11413,-1.02717 0,-0.22826 0,-0.45652 0,-0.79891 l 0.913043,-8.67392 c 0,-0.34239 0.11413,-0.57065 0.11413,-0.68478 0,-0.22826 0.114131,-0.45652 0.114131,-0.68478 0.11413,-0.22826 0.228261,-0.45653 0.342391,-0.57065 0.114131,-0.11414 0.228261,-0.22827 0.456522,-0.3424 0.228261,-0.11413 0.456522,-0.11413 0.684782,-0.11413 0.114131,0 0.342392,0 0.456522,0 0.114131,0 0.228261,0.11413 0.342391,0.11413 0.114131,0 0.114131,0.11413 0.228261,0.22826 0.114131,0.11414 0.114131,0.11414 0.114131,0.22826 0,0.11414 0.11413,0.11414 0.11413,0.3424 0,0.11413 0,0.22826 0,0.34239 0,0.11413 0,0.22826 0,0.34239 0,0.11413 0,0.34239 0,0.34239 0,0.11413 0,0.22826 0,0.34239 l -0.228261,1.82609 h 3.994567 l 0.11413,-1.59783 c 0,-0.34239 0,-0.68478 0,-1.02717 0,-0.22826 0,-0.45652 0,-0.68478 0.228261,-0.79892 0.11413,-1.25544 -0.11413,-1.71196 z m 53.184776,-5.25 h 8.33152 l 0.34239,-2.73913 h -4.33695 l 0.57065,-5.59239 h 3.19565 l 0.34239,-2.8532638 h -3.30978 l 0.57065,-4.6793482 h 7.19022 l -1.71196,15.864132 h 4.1087 l 1.71195,-15.864132 h 2.85326 l 0.22827,-2.85326 h -9.81522 -8.33152 z M 134.33152,0.570651 133.41847,9.7010832 130.45108,0.570651 h -2.85326 l -1.94022,18.717392 h 3.42392 l 1.02717,-9.8152198 2.96739,9.8152198 h 2.73913 l 1.94022,-18.717392 z m -17.91848,18.717392 h 8.33152 l 0.34239,-2.73913 h -4.33696 l 1.71196,-15.978262 h -3.99456 z M 116.18478,0.570651 h -4.22283 l -3.42391,11.184782 -1.02718,-11.184782 h -4.33695 l -2.16848,18.717392 h 2.85326 l 1.59783,-12.5543488 1.02717,12.5543488 h 2.51087 l 3.65217,-12.4402188 -1.02717,12.4402188 h 2.85326 z M 92.673912,13.923913 94.043478,0.570652 h -3.994565 l -1.369564,12.782611 c 0,0.57065 0,1.02717 0,1.48369 0,0.45652 0,0.79892 0.11413,1.14131 0.114132,0.79891 0.342392,1.36956 0.684783,1.94021 0.342391,0.57066 0.913043,0.91305 1.597826,1.14131 0.684783,0.22826 1.597826,0.45652 2.625001,0.45652 1.027173,0 1.940216,-0.11413 2.739129,-0.34239 0.798913,-0.22826 1.369562,-0.68478 1.826082,-1.25544 0.45653,-0.57065 0.79892,-1.1413 1.02718,-1.94021 0.22826,-0.68479 0.45652,-1.59783 0.57065,-2.625 L 101.2337,0.570652 h -3.994569 l -1.369565,13.353261 c 0,0.34239 -0.114131,0.57065 -0.114131,0.79891 0,0.22826 -0.114131,0.45652 -0.228261,0.68478 -0.114131,0.22827 -0.22826,0.45653 -0.342391,0.57066 -0.114131,0.11413 -0.228261,0.34239 -0.456522,0.34239 -0.228261,0.11413 -0.456523,0.11413 -0.684783,0.11413 -0.342391,0 -0.570653,-0.11413 -0.798913,-0.22826 -0.228261,-0.11413 -0.342391,-0.34239 -0.342391,-0.57065 -0.114131,-0.22827 -0.114131,-0.57066 -0.114131,-0.79892 0,-0.11413 0,-0.11413 0,-0.11413 -0.114131,-0.22826 -0.114131,-0.45652 -0.114131,-0.79891 z m -9.701089,-2.85326 -0.798914,8.21739 h 3.994566 L 88.222822,0.570651 H 84.114127 L 83.315214,8.2173902 H 80.347823 L 81.146736,0.570651 H 77.03804 l -1.940217,18.717392 h 4.108695 l 0.798913,-8.21739 z M 62.429349,0 H 50.559783 c -4.451087,0 -7.076087,0.684782 -8.673913,2.396739 -2.739131,2.8532612 -3.309782,8.217394 -4.108695,16.434784 l -0.456523,3.99456 c -0.342391,3.76631 -0.684782,7.07609 -0.684782,9.81522 0,6.84783 1.369565,9.3587 9.815217,9.3587 2.51087,0 6.619565,-0.11413 6.619565,-0.11413 l 0.684783,-6.7337 h -6.048913 c -2.396739,0 -3.538045,-0.11413 -3.538045,-3.30978 0,-1.4837 0.228262,-3.65218 0.570653,-6.84783 0.114131,-1.1413 0.22826,-2.51087 0.456522,-3.88043 l 0.228261,-1.82609 C 46.565216,8.1032602 46.793478,6.7336952 50.445652,6.7336952 h 0.114131 10.61413 c 2.396739,0 2.396739,2.282608 2.396739,3.081518 0,1.1413098 -0.228261,2.9673898 -0.456522,4.6793498 v 0.34239 c -0.570652,5.82066 -0.913043,8.21739 -3.423913,8.21739 h -2.282609 l 1.141305,-11.07065 h -7.076087 l -1.940217,18.375 h 9.701087 l 1.027174,10.95652 h 7.076087 l -1.483696,-13.92391 0.342391,-0.34239 c 3.081522,-2.85326 3.766305,-7.64674 4.336957,-12.32609 C 70.76087,12.896743 70.875,10.614133 70.875,8.9021732 70.875,3.195652 69.505435,0 62.429349,0 Z M 9.016304,24.081523 h 5.364131 l -0.570652,5.59239 c -0.570653,4.90761 -0.798913,8.44565 0.913044,10.38587 1.255434,1.36956 3.652173,1.94022 7.760869,1.94022 9.016304,0 10.157608,-3.19566 11.184782,-12.55435 L 36.749999,0.570652 h -7.076086 l -3.195652,29.331521 c -0.456522,4.33696 -0.570652,5.70652 -3.195652,5.70652 -0.684783,0 -1.369567,-0.11413 -1.940218,-0.68478 C 20.657609,34.125003 20.657609,32.983693 21,30.358693 L 21.114129,29.445653 24.309783,0.45652 H 16.891304 L 15.179348,16.320653 H 9.815217 L 11.527174,0.570652 H 4.2228261 L 0,41.315213 h 7.3043478 z"
     inkscape:connector-curvature="0" /></svg>